<?xml version="1.0" standalone="no"?>
<!DOCTYPE svg PUBLIC "-//W3C//DTD SVG 20010904//EN"
 "http://www.w3.org/TR/2001/REC-SVG-20010904/DTD/svg10.dtd">
<svg version="1.0" xmlns="http://www.w3.org/2000/svg"
 width="327.000000pt" height="169.000000pt" viewBox="0 0 327.000000 169.000000"
 preserveAspectRatio="xMidYMid meet">

<g transform="translate(0.000000,169.000000) scale(0.100000,-0.100000)"
fill="#000000" stroke="none">
<path d="M2285 1495 c-41 -21 -63 -49 -75 -97 -28 -101 94 -193 190 -143 69
36 92 123 50 193 -31 51 -113 74 -165 47z"/>
<path d="M177 1118 c-4 -166 -7 -409 -7 -540 l0 -239 313 3 312 3 55 26 c188
89 250 334 119 471 l-38 41 39 44 c67 76 84 161 54 263 -30 102 -96 174 -194
211 -45 17 -78 19 -348 19 l-299 0 -6 -302z m606 72 c59 -47 56 -143 -7 -181
-27 -17 -51 -19 -208 -19 l-178 0 0 110 0 110 184 0 c169 0 185 -2 209 -20z
m-15 -430 c59 -36 75 -115 33 -164 -33 -38 -73 -46 -246 -46 l-165 0 0 115 0
115 173 0 c155 0 175 -2 205 -20z"/>
<path d="M1483 1396 c-114 -43 -202 -129 -254 -246 -24 -55 -24 -58 -27 -432
l-3 -378 105 0 106 0 0 110 0 110 220 0 220 0 0 -110 0 -110 110 0 110 0 0
313 c-1 171 -5 344 -9 384 -18 149 -113 282 -248 346 -60 28 -80 32 -168 34
-85 3 -109 0 -162 -21z m220 -197 c49 -13 105 -63 128 -114 15 -32 19 -66 19
-177 l0 -138 -220 0 -220 0 0 133 c0 146 11 183 69 245 54 58 134 76 224 51z"/>
<path d="M2240 745 l0 -405 100 0 100 0 0 405 0 405 -100 0 -100 0 0 -405z"/>
<path d="M2600 745 l0 -405 105 0 105 0 0 245 c0 274 2 282 66 331 34 26 44
28 156 32 l120 5 -6 51 c-3 28 -6 73 -6 100 l0 49 -127 -6 c-140 -6 -173 -14
-248 -62 l-51 -32 -32 48 c-24 37 -38 49 -57 49 l-25 0 0 -405z"/>
</g>
</svg>
